<?xml version="1.0" encoding="UTF-8"?>
<svg width="359px" height="360px" viewBox="0 0 359 360" version="1.1" xmlns="http://www.w3.org/2000/svg" xmlns:xlink="http://www.w3.org/1999/xlink">
    <!-- Generator: sketchtool 53 (72520) - https://sketchapp.com -->
    <title>371CFD26-C948-486A-92B9-DE89DF1BD45A</title>
    <desc>Created with sketchtool.</desc>
    <defs>
        <polygon id="path-1" points="0.0001 0.803 358.197 0.803 358.197 359 0.0001 359"></polygon>
    </defs>
    <g id="Symbols" stroke="none" stroke-width="1" fill="none" fill-rule="evenodd">
        <g id="Logo">
            <g id="Group-68">
                <g id="Group-3" transform="translate(0.000000, 0.197000)">
                    <mask id="mask-2" fill="white">
                        <use xlink:href="#path-1"></use>
                    </mask>
                    <g id="Clip-2"></g>
                    <path d="M0.0001,179.9017 C0.0001,80.9877 80.1851,0.8027 179.0991,0.8027 C278.0121,0.8027 358.1971,80.9877 358.1971,179.9017 C358.1971,278.8147 278.0121,359.0007 179.0991,359.0007 C80.1851,359.0007 0.0001,278.8147 0.0001,179.9017" id="Fill-1" fill="#020203" mask="url(#mask-2)"></path>
                </g>
                <polygon id="Fill-4" fill="#FEFEFE" points="68.7428 127.961 50.8828 118.943 53.6688 113.426 71.5288 122.442"></polygon>
                <polygon id="Fill-6" fill="#FEFEFE" points="85.3653 101.3907 82.4433 105.5037 69.5343 107.0267 77.3953 112.6107 73.8173 117.6487 57.5103 106.0657 60.4493 101.9277 73.6753 100.6297 65.4973 94.8217 69.0593 89.8077"></polygon>
                <polygon id="Fill-8" fill="#FEFEFE" points="87.1475 78.8096 97.3295 89.5276 92.8475 93.7856 82.6655 83.0676 78.1835 87.3256 74.5845 83.5366 88.0305 70.7626 91.6295 74.5516"></polygon>
                <polygon id="Fill-10" fill="#FEFEFE" points="118.9171 73.6495 105.4541 82.5235 94.4431 65.8185 107.7821 57.0265 110.5921 61.2905 102.4141 66.6805 103.8441 68.8495 111.3491 63.9035 113.8791 67.7435 106.3751 72.6895 107.8041 74.8585 116.1071 69.3855"></polygon>
                <path d="M124.5831,58.8135 L127.7161,57.4825 C128.4301,57.1785 128.9201,56.7655 129.1841,56.2425 C129.4491,55.7195 129.4561,55.1655 129.2071,54.5785 C128.9741,54.0295 128.5811,53.6765 128.0281,53.5225 C127.4761,53.3675 126.8431,53.4415 126.1281,53.7455 L122.9961,55.0765 L124.5831,58.8135 Z M134.0221,66.6765 L126.8351,63.0465 L126.4511,63.2095 L128.8551,68.8715 L123.1671,71.2885 L115.3461,52.8755 L125.4041,48.6035 C127.4011,47.7545 129.2541,47.6495 130.9621,48.2865 C132.6711,48.9225 133.9261,50.1845 134.7281,52.0715 C135.3421,53.5185 135.4981,54.9285 135.1941,56.3005 C134.8911,57.6735 134.1671,58.8735 133.0241,59.8995 L140.8371,63.7825 L134.0221,66.6765 Z" id="Fill-12" fill="#FEFEFE"></path>
                <polygon id="Fill-14" fill="#FEFEFE" points="164.147 58.6055 159.203 59.6245 148.715 51.9365 150.662 61.3845 144.607 62.6315 140.569 43.0345 145.542 42.0085 156.108 50.0775 154.083 40.2495 160.108 39.0075"></polygon>
                <path d="M179.5601,44.5889 L177.4361,50.2599 L181.4671,50.3249 L179.5601,44.5889 Z M184.1171,58.1939 L183.2061,55.4619 L175.5311,55.3359 L174.5311,58.0379 L167.9321,57.9299 L176.1721,38.0519 L183.1301,38.1659 L190.7161,58.3029 L184.1171,58.1939 Z" id="Fill-16" fill="#FEFEFE"></path>
                <polygon id="Fill-18" fill="#FEFEFE" points="206.275 46.0039 203.684 60.5519 197.601 59.4679 200.192 44.9209 194.108 43.8379 195.024 38.6939 213.275 41.9439 212.358 47.0879"></polygon>
                <polygon id="Fill-20" fill="#FEFEFE" points="214.2208 63.2061 220.4568 44.2001 226.3288 46.1271 220.0928 65.1321"></polygon>
                <path d="M240.4146,67.1368 C241.6116,66.6978 242.5316,65.8488 243.1736,64.5898 C243.8166,63.3298 243.9656,62.0878 243.6196,60.8608 C243.2736,59.6328 242.4976,58.7118 241.2926,58.0958 C240.0866,57.4808 238.8806,57.3898 237.6756,57.8248 C236.4696,58.2598 235.5456,59.1078 234.9026,60.3658 C234.2596,61.6248 234.1156,62.8698 234.4706,64.1018 C234.8246,65.3328 235.6046,66.2568 236.8106,66.8728 C238.0166,67.4888 239.2176,67.5758 240.4146,67.1368 M249.2746,59.3718 C250.2266,62.1268 250.0366,64.8078 248.7066,67.4138 C247.3746,70.0208 245.3146,71.7458 242.5256,72.5898 C239.7356,73.4348 236.9936,73.1688 234.2986,71.7928 C231.5856,70.4078 229.7576,68.3398 228.8146,65.5898 C227.8726,62.8398 228.0666,60.1608 229.3966,57.5548 C230.7276,54.9488 232.7836,53.2208 235.5646,52.3718 C238.3456,51.5228 241.0916,51.7908 243.8046,53.1758 C246.4996,54.5518 248.3236,56.6168 249.2746,59.3718" id="Fill-22" fill="#FEFEFE"></path>
                <polygon id="Fill-24" fill="#FEFEFE" points="263.5015 91.4786 259.5795 88.3046 258.8695 75.3236 252.8025 82.8196 247.9985 78.9316 260.5835 63.3816 264.5285 66.5756 264.9945 79.8576 271.3055 72.0596 276.0865 75.9286"></polygon>
                <path d="M284.0093,94.3164 L278.3103,96.3594 L280.8643,99.4774 L284.0093,94.3164 Z M276.5713,106.5844 L278.0683,104.1234 L273.2053,98.1854 L270.4983,99.1684 L266.3163,94.0624 L286.8083,87.5074 L291.2173,92.8904 L280.7533,111.6894 L276.5713,106.5844 Z" id="Fill-26" fill="#FEFEFE"></path>
                <polygon id="Fill-28" fill="#FEFEFE" points="290.0113 128.625 282.6463 115.158 300.2003 105.559 303.1663 110.981 290.2233 118.06 294.6223 126.103"></polygon>
                <polygon id="Fill-30" fill="#FEFEFE" points="56.9918 219.3741 42.8148 223.5511 41.0678 217.6221 55.2448 213.4451 53.4978 207.5171 58.5108 206.0401 63.7508 223.8261 58.7388 225.3031"></polygon>
                <path d="M59.9976,237.251 L61.5386,240.286 C61.8906,240.979 62.3356,241.439 62.8756,241.667 C63.4156,241.896 63.9706,241.865 64.5386,241.577 C65.0706,241.307 65.3956,240.891 65.5126,240.329 C65.6286,239.768 65.5116,239.14 65.1606,238.448 L63.6186,235.412 L59.9976,237.251 Z M52.7936,247.205 L55.9266,239.787 L55.7376,239.414 L50.2516,242.199 L47.4536,236.688 L65.2936,227.63 L70.2416,237.375 C71.2246,239.31 71.4556,241.151 70.9366,242.899 C70.4176,244.647 69.2446,245.986 67.4156,246.914 C66.0136,247.626 64.6176,247.878 63.2266,247.668 C61.8366,247.458 60.5906,246.818 59.4896,245.748 L56.1466,253.809 L52.7936,247.205 Z" id="Fill-32" fill="#FEFEFE"></path>
                <path d="M77.0655,259.7715 L71.3245,261.6845 L73.8065,264.8585 L77.0655,259.7715 Z M69.3565,271.8625 L70.9075,269.4365 L66.1815,263.3935 L63.4535,264.3145 L59.3905,259.1185 L80.0175,253.0305 L84.3005,258.5085 L73.4195,277.0595 L69.3565,271.8625 Z" id="Fill-34" fill="#FEFEFE"></path>
                <path d="M88.1954,283.7227 C89.3724,284.7347 90.6144,285.2057 91.9214,285.1367 C93.2284,285.0667 94.3494,284.4887 95.2834,283.4027 C96.2184,282.3167 96.6224,281.1207 96.4964,279.8187 C96.3704,278.5157 95.7194,277.3577 94.5424,276.3457 L93.0044,275.0217 L86.6564,282.3987 L88.1954,283.7227 Z M98.2764,272.7847 C100.7504,274.9127 102.1414,277.3307 102.4504,280.0377 C102.7594,282.7457 101.9474,285.2237 100.0134,287.4717 C98.0794,289.7197 95.7504,290.8927 93.0274,290.9917 C90.3034,291.0897 87.7054,290.0747 85.2314,287.9457 L78.6234,282.2597 L91.6684,267.0987 L98.2764,272.7847 Z" id="Fill-36" fill="#FEFEFE"></path>
                <polygon id="Fill-38" fill="#FEFEFE" points="113.9898 307.6778 100.0808 299.5298 110.1918 282.2718 123.9718 290.3458 121.3908 294.7498 112.9428 289.7998 111.6298 292.0408 119.3828 296.5828 117.0588 300.5498 109.3058 296.0078 107.9928 298.2478 116.5708 303.2738"></polygon>
                <path d="M130.7779,303.0567 L133.9719,304.2347 C134.6999,304.5027 135.3399,304.5367 135.8909,304.3367 C136.4419,304.1367 136.8279,303.7387 137.0479,303.1407 C137.2549,302.5797 137.2099,302.0547 136.9139,301.5637 C136.6169,301.0727 136.1049,300.6927 135.3769,300.4237 L132.1829,299.2457 L130.7779,303.0567 Z M132.2639,315.2517 L129.5169,307.6837 L129.1249,307.5387 L126.9969,313.3097 L121.1979,311.1717 L128.1189,292.4017 L138.3729,296.1827 C140.4089,296.9327 141.8309,298.1257 142.6389,299.7597 C143.4469,301.3947 143.4959,303.1737 142.7869,305.0977 C142.2429,306.5737 141.3899,307.7067 140.2279,308.4977 C139.0669,309.2897 137.7179,309.6677 136.1819,309.6317 L139.2119,317.8137 L132.2639,315.2517 Z" id="Fill-40" fill="#FEFEFE"></path>
                <path d="M163.3814,303.2901 C164.7264,304.5471 165.4134,306.1281 165.4424,308.0331 L159.3194,308.1981 C159.2194,306.5851 158.4344,305.6481 156.9644,305.3901 C156.4154,305.2931 155.9534,305.3381 155.5764,305.5241 C155.2004,305.7111 154.9764,306.0101 154.9034,306.4221 C154.8004,307.0101 155.0594,307.4291 155.6824,307.6801 L159.4174,309.3681 C161.2524,310.1951 162.5684,311.1601 163.3644,312.2601 C164.1614,313.3601 164.4224,314.6941 164.1464,316.2631 C163.8804,317.7711 163.2054,318.9671 162.1214,319.8471 C161.0364,320.7271 159.8354,321.2691 158.5154,321.4711 C157.1964,321.6741 155.8324,321.6501 154.4204,321.4021 C151.9504,320.9681 149.9714,320.0391 148.4844,318.6151 C146.9964,317.1911 146.2774,315.5341 146.3274,313.6441 L152.7044,313.5831 C152.8264,315.3021 153.7104,316.3061 155.3574,316.5961 C155.9444,316.6991 156.4504,316.6671 156.8744,316.4991 C157.2984,316.3311 157.5484,316.0311 157.6234,315.6001 C157.7204,315.0511 157.4134,314.6131 156.7034,314.2861 L152.8214,312.5721 C149.3304,311.0491 147.8454,308.8081 148.3654,305.8481 C148.7314,303.7691 149.7884,302.2981 151.5374,301.4341 C153.2854,300.5691 155.3654,300.3491 157.7774,300.7731 C160.1684,301.1941 162.0364,302.0331 163.3814,303.2901" id="Fill-42" fill="#FEFEFE"></path>
                <polygon id="Fill-44" fill="#FEFEFE" points="201.9005 321.6094 196.8745 322.0584 187.3325 313.2274 188.1905 322.8344 182.0345 323.3834 180.2555 303.4584 185.3115 303.0064 194.8875 312.2234 193.9955 302.2314 200.1215 301.6844"></polygon>
                <polygon id="Fill-46" fill="#FEFEFE" points="225.6656 315.5635 210.1426 319.9145 204.7446 300.6535 220.1236 296.3425 221.5016 301.2585 212.0726 303.9015 212.7736 306.4025 221.4266 303.9775 222.6666 308.4045 214.0146 310.8295 214.7146 313.3305 224.2886 310.6475"></polygon>
                <polygon id="Fill-48" fill="#FEFEFE" points="237.3253 294.3809 243.7223 307.7039 238.1513 310.3799 231.7533 297.0559 226.1813 299.7319 223.9203 295.0209 240.6353 286.9949 242.8973 291.7049"></polygon>
                <polygon id="Fill-50" fill="#FEFEFE" points="274.4561 287.0147 269.2161 291.1217 260.6201 284.3167 265.1741 294.2897 259.9571 298.3777 243.2701 286.0407 248.2051 282.1737 257.2221 288.8387 252.5761 278.7477 257.1581 275.1577 265.8461 282.0787 261.5051 271.7497 266.4631 267.8637"></polygon>
                <path d="M287.6177,262.96 C287.4307,261.699 286.7867,260.626 285.6857,259.741 C284.5837,258.856 283.3977,258.457 282.1257,258.546 C280.8537,258.634 279.7947,259.206 278.9467,260.261 C278.0977,261.315 277.7647,262.478 277.9447,263.746 C278.1247,265.015 278.7657,266.092 279.8677,266.978 C280.9687,267.863 282.1587,268.258 283.4367,268.161 C284.7147,268.064 285.7777,267.489 286.6257,266.435 C287.4727,265.379 287.8047,264.222 287.6177,262.96 M281.8207,252.707 C284.7107,252.336 287.2957,253.067 289.5767,254.9 C291.8567,256.734 293.1267,259.102 293.3857,262.004 C293.6437,264.907 292.8257,267.537 290.9307,269.896 C289.0217,272.269 286.6257,273.637 283.7417,274 C280.8577,274.363 278.2757,273.628 275.9947,271.794 C273.7147,269.961 272.4417,267.597 272.1767,264.702 C271.9117,261.808 272.7337,259.174 274.6417,256.8 C276.5367,254.442 278.9297,253.077 281.8207,252.707" id="Fill-52" fill="#FEFEFE"></path>
                <path d="M294.8707,243.7149 L296.4487,240.6979 C296.8077,240.0109 296.9247,239.3809 296.7967,238.8089 C296.6687,238.2359 296.3237,237.8029 295.7587,237.5069 C295.2297,237.2309 294.7027,237.2069 294.1777,237.4389 C293.6517,237.6689 293.2097,238.1279 292.8497,238.8169 L291.2717,241.8319 L294.8707,243.7149 Z M307.1567,243.8059 L299.2977,245.5589 L299.1037,245.9289 L304.5547,248.7799 L301.6897,254.2569 L283.9617,244.9849 L289.0277,235.3009 C290.0337,233.3779 291.3987,232.1199 293.1227,231.5289 C294.8487,230.9379 296.6197,231.1159 298.4357,232.0669 C299.8287,232.7959 300.8437,233.7869 301.4797,235.0409 C302.1157,236.2939 302.3177,237.6809 302.0847,239.1989 L310.5887,237.2439 L307.1567,243.8059 Z" id="Fill-54" fill="#FEFEFE"></path>
                <polygon id="Fill-56" fill="#FEFEFE" points="316.8218 218.7246 308.8208 221.6716 308.5518 222.5576 315.0688 224.5266 313.2808 230.4426 294.1328 224.6566 295.9208 218.7406 302.9508 220.8646 303.1498 220.2066 297.7078 212.8246 299.7978 205.9086 307.2698 215.9626 319.1108 211.1516"></polygon>
                <path d="M179.0982,336.3477 C92.9422,336.3477 22.8482,266.2547 22.8482,180.0987 C22.8482,93.9417 92.9422,23.8477 179.0982,23.8477 C265.2552,23.8477 335.3482,93.9417 335.3482,180.0987 C335.3482,266.2547 265.2552,336.3477 179.0982,336.3477 M179.0982,16.8477 C89.0822,16.8477 15.8482,90.0817 15.8482,180.0987 C15.8482,270.1147 89.0822,343.3477 179.0982,343.3477 C269.1142,343.3477 342.3482,270.1147 342.3482,180.0987 C342.3482,90.0817 269.1142,16.8477 179.0982,16.8477" id="Fill-58" fill="#D8B021"></path>
                <path d="M206.9903,278.503 C213.4943,273.093 219.4603,265.744 224.6463,256.619 C228.1423,250.467 231.1563,243.704 233.6773,236.484 L264.3773,236.484 C251.0283,256.606 230.7613,271.756 206.9903,278.503 L206.9903,278.503 Z M93.8203,236.484 L124.5193,236.484 C127.0403,243.704 130.0543,250.467 133.5513,256.619 C138.7373,265.744 144.7033,273.094 151.2073,278.503 C127.4363,271.756 107.1683,256.606 93.8203,236.484 L93.8203,236.484 Z M77.0393,186.587 C76.9773,185.602 76.9283,184.613 76.8943,183.621 C76.8943,183.613 76.8933,183.606 76.8933,183.599 L103.1383,183.599 L110.1383,176.599 L76.8933,176.599 C77.4543,160.005 81.9863,144.403 89.5683,130.713 L122.2803,130.713 C118.6233,143.188 116.3873,156.826 115.7173,171.02 L123.2373,163.5 C124.3003,151.786 126.4673,140.737 129.5403,130.713 L175.5983,130.713 L175.5983,176.599 L175.5983,176.599 L149.7373,176.599 L142.7373,183.599 L175.5983,183.599 L175.5983,183.599 L175.5983,229.484 L129.5403,229.484 C126.9783,221.125 125.0453,212.054 123.8573,202.479 L117.6723,208.663 C118.7913,215.873 120.3333,222.844 122.2803,229.484 L89.5683,229.484 C89.2523,228.914 88.9423,228.34 88.6373,227.763 L88.6653,227.734 C86.3313,223.326 84.3093,218.729 82.6293,213.971 L82.6073,213.992 C79.5683,205.364 77.6563,196.21 77.0463,186.706 C77.0443,186.666 77.0413,186.627 77.0393,186.587 L77.0393,186.587 Z M151.2073,81.693 C144.7033,87.103 138.7373,94.452 133.5513,103.577 C130.0543,109.729 127.0403,116.492 124.5193,123.713 L93.8203,123.713 C107.1683,103.591 127.4363,88.44 151.2073,81.693 L151.2073,81.693 Z M264.3773,123.713 L233.6773,123.713 C231.1573,116.492 228.1423,109.729 224.6463,103.577 C219.4603,94.452 213.4943,87.103 206.9903,81.693 C230.7613,88.44 251.0293,103.591 264.3773,123.713 L264.3773,123.713 Z M182.5983,123.713 L182.5983,78.028 C200.8353,80.048 216.7633,97.733 226.3033,123.713 L182.5983,123.713 Z M175.5983,78.028 L175.5983,123.713 L131.8943,123.713 C141.4343,97.733 157.3623,80.048 175.5983,78.028 L175.5983,78.028 Z M175.5983,282.168 C157.3623,280.148 141.4343,262.464 131.8943,236.484 L175.5983,236.484 L175.5983,282.168 Z M226.3033,236.484 C216.7633,262.464 200.8353,280.148 182.5983,282.168 L182.5983,236.484 L226.3033,236.484 Z M281.1543,141.058 C281.1543,141.058 281.3693,177.898 281.3693,180.099 C281.3693,197.998 276.7423,214.834 268.6293,229.484 L235.9173,229.484 C239.5713,217.021 241.8063,203.395 242.4783,189.214 L234.9563,196.736 C233.8923,208.435 231.7263,219.471 228.6573,229.484 L182.5983,229.484 L182.5983,183.599 L208.4953,183.599 L215.4953,176.599 L182.5983,176.599 L182.5983,130.713 L276.5693,130.739 C258.5093,95.22 221.6003,70.827 179.0983,70.827 C118.8453,70.827 69.8273,119.846 69.8273,180.099 C69.8273,240.351 118.8453,289.369 179.0983,289.369 C239.3503,289.369 288.3693,240.351 288.3693,180.099 C288.3693,166.349 285.8103,153.189 281.1543,141.058 L281.1543,141.058 Z" id="Fill-60" fill="#D8B021"></path>
                <polygon id="Fill-62" fill="#FEFEFE" points="260.1544 180.9922 274.1544 180.9922 274.1544 137.7392 230.9014 137.7392 230.9014 151.7392 230.9014 151.7392 250.2544 151.7392 205.4464 196.5472 199.4984 190.5982 189.5984 190.5982 189.5984 200.4972 205.4464 216.3462 260.1544 161.6382"></polygon>
                <polygon id="Fill-64" fill="#D8B021" points="253.1544 178.5381 248.0934 183.5991 253.1544 183.5991"></polygon>
                <path d="M152.7501,163.6495 L158.6991,169.5985 L168.5991,169.5985 L168.5991,159.6985 L152.7501,143.8505 L88.1411,208.4605 C89.6541,213.3005 91.5601,218.0105 93.8411,222.5585 L152.7501,163.6495 Z" id="Fill-66" fill="#FEFEFE"></path>
            </g>
        </g>
    </g>
</svg>